<mxfile host="Electron" agent="Mozilla/5.0 (Windows NT 10.0; Win64; x64) AppleWebKit/537.36 (KHTML, like Gecko) draw.io/24.7.8 Chrome/128.0.6613.36 Electron/32.0.1 Safari/537.36" version="24.7.8">
  <diagram name="Página-1" id="WMXvegwjLZPlVOqN38wE">
    <mxGraphModel dx="880" dy="524" grid="1" gridSize="10" guides="1" tooltips="1" connect="1" arrows="1" fold="1" page="1" pageScale="1" pageWidth="827" pageHeight="1169" math="0" shadow="0">
      <root>
        <mxCell id="0" />
        <mxCell id="1" parent="0" />
        <mxCell id="XlUwVdXiZGoEfP3AjBws-13" style="edgeStyle=orthogonalEdgeStyle;rounded=0;orthogonalLoop=1;jettySize=auto;html=1;entryX=0.5;entryY=0;entryDx=0;entryDy=0;fontColor=#FFFFFF;fillColor=#3333FF;fontSize=15;labelBackgroundColor=#000000;" edge="1" parent="1" source="XlUwVdXiZGoEfP3AjBws-1" target="XlUwVdXiZGoEfP3AjBws-2">
          <mxGeometry relative="1" as="geometry" />
        </mxCell>
        <mxCell id="XlUwVdXiZGoEfP3AjBws-1" value="usuario&lt;div&gt;&lt;br&gt;&lt;/div&gt;" style="shape=actor;whiteSpace=wrap;html=1;fillColor=#0050ef;fontColor=#ffffff;strokeColor=#001DBC;verticalAlign=bottom;" vertex="1" parent="1">
          <mxGeometry x="370" y="50" width="60" height="80" as="geometry" />
        </mxCell>
        <mxCell id="XlUwVdXiZGoEfP3AjBws-2" value="DNS- Antigüedadeschespirito.com&amp;nbsp;&lt;div&gt;Nombre de dominio&lt;/div&gt;" style="rounded=1;whiteSpace=wrap;html=1;" vertex="1" parent="1">
          <mxGeometry x="200" y="200" width="400" height="60" as="geometry" />
        </mxCell>
        <mxCell id="XlUwVdXiZGoEfP3AjBws-3" value="CDN - (Certificado de seguridad&lt;div&gt;Reglas de redireccionamiento,provienen de varios origenes&amp;nbsp;&lt;/div&gt;" style="rounded=1;whiteSpace=wrap;html=1;" vertex="1" parent="1">
          <mxGeometry x="200" y="280" width="280" height="80" as="geometry" />
        </mxCell>
        <mxCell id="XlUwVdXiZGoEfP3AjBws-4" value="WAF&lt;div&gt;Capa de protección&lt;/div&gt;&lt;div&gt;Seguridad&lt;/div&gt;&lt;div&gt;Reglas denegación de servicios&lt;/div&gt;" style="rounded=1;whiteSpace=wrap;html=1;" vertex="1" parent="1">
          <mxGeometry x="490" y="280" width="110" height="80" as="geometry" />
        </mxCell>
        <mxCell id="XlUwVdXiZGoEfP3AjBws-5" value="&lt;div&gt;BALANCEADOR - API&amp;nbsp; GATEWAY&lt;/div&gt;Puerta de entrada de la aplicación&lt;div&gt;&lt;br&gt;&lt;/div&gt;" style="rounded=1;whiteSpace=wrap;html=1;" vertex="1" parent="1">
          <mxGeometry x="200" y="390" width="280" height="60" as="geometry" />
        </mxCell>
        <mxCell id="XlUwVdXiZGoEfP3AjBws-6" value="AUTH Y AUTO&lt;div&gt;Antes que la solicitud llegue al backend&lt;/div&gt;" style="rounded=1;whiteSpace=wrap;html=1;" vertex="1" parent="1">
          <mxGeometry x="490" y="390" width="110" height="60" as="geometry" />
        </mxCell>
        <mxCell id="XlUwVdXiZGoEfP3AjBws-7" value="BACKEND - (Servidores, Funciones, Contenedores)&amp;nbsp; ZONA PRIVADA&lt;div&gt;No esta expuesta directamente a internet&amp;nbsp;&lt;/div&gt;" style="rounded=1;whiteSpace=wrap;html=1;fillColor=#00CC00;" vertex="1" parent="1">
          <mxGeometry x="200" y="480" width="400" height="60" as="geometry" />
        </mxCell>
        <mxCell id="XlUwVdXiZGoEfP3AjBws-10" style="edgeStyle=orthogonalEdgeStyle;rounded=0;orthogonalLoop=1;jettySize=auto;html=1;" edge="1" parent="1" source="XlUwVdXiZGoEfP3AjBws-8" target="XlUwVdXiZGoEfP3AjBws-9">
          <mxGeometry relative="1" as="geometry" />
        </mxCell>
        <mxCell id="XlUwVdXiZGoEfP3AjBws-8" value="BD - M&lt;div&gt;&lt;br&gt;&lt;div&gt;Resive solicitud de lectura e escritura&lt;/div&gt;&lt;/div&gt;" style="shape=cylinder3;whiteSpace=wrap;html=1;boundedLbl=1;backgroundOutline=1;size=15;fillColor=#3333FF;" vertex="1" parent="1">
          <mxGeometry x="200" y="570" width="100" height="170" as="geometry" />
        </mxCell>
        <mxCell id="XlUwVdXiZGoEfP3AjBws-9" value="BD - Slei&lt;div&gt;&lt;br&gt;&lt;/div&gt;&lt;div&gt;Modelo activo o pasivo&lt;/div&gt;&lt;div&gt;&lt;br&gt;&lt;/div&gt;&lt;div&gt;Resive trafico&lt;/div&gt;&lt;div&gt;por si la principal falla&lt;/div&gt;" style="shape=cylinder3;whiteSpace=wrap;html=1;boundedLbl=1;backgroundOutline=1;size=15;fillColor=#0000CC;" vertex="1" parent="1">
          <mxGeometry x="490" y="570" width="110" height="170" as="geometry" />
        </mxCell>
        <mxCell id="XlUwVdXiZGoEfP3AjBws-11" value="ALMACENAMIENTO - Objetos, Bloques, Archivos" style="rounded=1;whiteSpace=wrap;html=1;" vertex="1" parent="1">
          <mxGeometry x="200" y="750" width="400" height="60" as="geometry" />
        </mxCell>
        <mxCell id="XlUwVdXiZGoEfP3AjBws-12" value="CONECTIVIDAD - HIBRIDA" style="rounded=1;whiteSpace=wrap;html=1;" vertex="1" parent="1">
          <mxGeometry x="200" y="840" width="400" height="60" as="geometry" />
        </mxCell>
        <mxCell id="XlUwVdXiZGoEfP3AjBws-14" value="Observavilidad&lt;div&gt;alerta&lt;/div&gt;&lt;div&gt;trazas&lt;/div&gt;&lt;div&gt;Componentes conectados&lt;/div&gt;" style="shape=delay;whiteSpace=wrap;html=1;fillColor=#FFFF66;fontColor=#000000;" vertex="1" parent="1">
          <mxGeometry x="20" y="200" width="160" height="60" as="geometry" />
        </mxCell>
        <mxCell id="XlUwVdXiZGoEfP3AjBws-15" value="Compliance&lt;div&gt;cifrado&lt;/div&gt;" style="shape=delay;whiteSpace=wrap;html=1;fillColor=#FFFF66;fontColor=#000000;" vertex="1" parent="1">
          <mxGeometry x="20" y="270" width="160" height="40" as="geometry" />
        </mxCell>
        <mxCell id="XlUwVdXiZGoEfP3AjBws-16" value="Auditoria&lt;div&gt;Cambios&lt;/div&gt;" style="shape=delay;whiteSpace=wrap;html=1;fillColor=#FFFF66;fontColor=#000000;" vertex="1" parent="1">
          <mxGeometry x="20" y="330" width="160" height="40" as="geometry" />
        </mxCell>
        <mxCell id="XlUwVdXiZGoEfP3AjBws-17" value="Cifrado&lt;div&gt;Reposo y en transito&lt;/div&gt;&lt;div&gt;kms, gestion y administración de llaves de cifrado&lt;/div&gt;" style="shape=delay;whiteSpace=wrap;html=1;fillColor=#FFFF66;fontColor=#000000;" vertex="1" parent="1">
          <mxGeometry x="20" y="390" width="160" height="70" as="geometry" />
        </mxCell>
      </root>
    </mxGraphModel>
  </diagram>
</mxfile>
